<svg xmlns="http://www.w3.org/2000/svg" width="320" height="60" viewBox="0 0 320 60"><rect width="100%" height="100%" fill="#DDDDDD"/><path fill="#999999" d="M68.32 32.355h5.75l-2.2-6.01q-.16-.4-.34-.95-.17-.55-.35-1.19-.16.64-.34 1.2-.17.55-.33.97zm4.59-11.24 7.1 18.07h-2.6q-.44 0-.72-.22-.27-.22-.41-.54l-1.35-3.69h-7.49l-1.35 3.69q-.1.28-.38.52-.29.24-.72.24h-2.62l7.11-18.07zm16.53 14.27v-5.75q-.52-.64-1.14-.9t-1.33-.26q-.7 0-1.26.26-.57.26-.97.79t-.61 1.35-.21 1.93q0 1.13.18 1.91t.52 1.28q.34.49.82.71.49.22 1.09.22.96 0 1.64-.4.67-.4 1.27-1.14m0-14.77h3.09v18.57h-1.89q-.61 0-.77-.56l-.26-1.24q-.78.89-1.79 1.44-1 .55-2.34.55-1.05 0-1.92-.44-.88-.44-1.51-1.27t-.98-2.06q-.34-1.22-.34-2.8 0-1.42.39-2.65.39-1.22 1.11-2.12.73-.9 1.74-1.41 1.01-.5 2.27-.5 1.08 0 1.84.33.76.34 1.36.92zm14.67 7.13-.7 1.11q-.13.2-.27.29-.13.08-.35.08t-.48-.13q-.25-.12-.59-.28t-.77-.28q-.43-.13-1.02-.13-.91 0-1.43.39t-.52 1.01q0 .42.27.7t.71.49q.45.21 1.01.38t1.14.37 1.15.46q.56.25 1 .65.45.39.71.94.27.55.27 1.33 0 .92-.33 1.7t-.98 1.35-1.61.89q-.95.32-2.2.32-.66 0-1.3-.12-.63-.12-1.21-.33t-1.07-.5q-.5-.29-.87-.63l.71-1.17q.14-.21.33-.33.18-.11.47-.11t.54.16q.26.17.6.35.34.19.79.35.46.17 1.16.17.55 0 .94-.13.4-.14.65-.35.26-.21.38-.49t.12-.58q0-.45-.27-.74t-.72-.5q-.44-.21-1.01-.38t-1.16-.37-1.16-.47-1.02-.68q-.44-.41-.71-1.01t-.27-1.45q0-.79.32-1.5.31-.72.91-1.25.61-.53 1.52-.85.9-.32 2.09-.32 1.33 0 2.41.44 1.09.44 1.82 1.15m12.82 4.61h5.75l-2.2-6.01q-.16-.4-.34-.95-.17-.55-.35-1.19-.16.64-.33 1.2-.18.55-.34.97zm4.59-11.24 7.1 18.07h-2.6q-.44 0-.71-.22-.28-.22-.42-.54l-1.35-3.69h-7.48l-1.35 3.69q-.1.28-.39.52t-.71.24h-2.63l7.11-18.07zm11.16 5.81.21 1.01q.39-.39.82-.72t.91-.56q.49-.23 1.04-.36.55-.14 1.2-.14 1.05 0 1.86.36t1.35 1q.55.64.83 1.54.28.89.28 1.97v8.16h-3.09v-8.16q0-1.18-.53-1.82-.54-.65-1.64-.65-.8 0-1.5.37-.7.36-1.33.98v9.28h-3.08v-12.83h1.88q.6 0 .79.57m19.39-.57h3.09v12.83h-1.89q-.61 0-.78-.56l-.21-1.03q-.79.8-1.74 1.3-.95.49-2.23.49-1.05 0-1.86-.36-.81-.35-1.36-1t-.83-1.55q-.28-.89-.28-1.96v-8.16h3.09v8.16q0 1.17.54 1.81.55.65 1.63.65.8 0 1.5-.36t1.33-.98zm8.81.57.21 1.01q.39-.39.82-.72t.91-.56q.49-.23 1.04-.36.55-.14 1.2-.14 1.05 0 1.86.36t1.35 1q.55.64.83 1.54.28.89.28 1.97v8.16h-3.09v-8.16q0-1.18-.53-1.82-.54-.65-1.64-.65-.8 0-1.5.37-.7.36-1.33.98v9.28h-3.08v-12.83h1.88q.6 0 .79.57m21.43 1.02-.82 1.13q-.13.17-.26.27-.14.1-.39.1-.23 0-.46-.14-.22-.15-.54-.33-.31-.18-.74-.32-.43-.15-1.07-.15-.81 0-1.42.3-.62.29-1.02.84-.41.55-.61 1.33t-.2 1.77q0 1.03.22 1.83t.63 1.34 1 .83q.59.28 1.33.28.73 0 1.19-.18.46-.19.77-.4.31-.22.54-.4.23-.19.52-.19.38 0 .56.29l.89 1.13q-.51.6-1.11 1-.6.41-1.24.65-.65.25-1.33.35t-1.36.1q-1.18 0-2.23-.45-1.05-.44-1.84-1.29t-1.25-2.08q-.45-1.23-.45-2.81 0-1.41.4-2.62.41-1.2 1.2-2.08.79-.89 1.95-1.39t2.67-.5q1.44 0 2.52.47 1.08.46 1.95 1.32m2.15-1.59h3.1v12.83h-3.1zm3.52-3.73q0 .4-.16.75t-.43.61-.63.42q-.37.15-.78.15-.4 0-.75-.15-.36-.16-.62-.42-.27-.26-.42-.61-.16-.35-.16-.75 0-.42.16-.78.15-.36.42-.62.26-.27.62-.42.35-.16.75-.16.41 0 .78.16.36.15.63.42.27.26.43.62t.16.78m9.5 13.25v-2.17q-1.34.07-2.25.24-.91.16-1.46.43-.55.26-.79.61t-.24.76q0 .81.49 1.17.48.34 1.25.34.95 0 1.64-.34.7-.34 1.36-1.04m-6.52-6.74-.55-.99q2.21-2.02 5.32-2.02 1.13 0 2.01.37.89.36 1.5 1.02.62.66.94 1.57.31.91.31 2v8.1h-1.4q-.43 0-.67-.13t-.38-.53l-.27-.93q-.49.44-.95.77t-.96.56q-.5.22-1.07.34t-1.26.12q-.81 0-1.5-.22t-1.19-.66q-.5-.43-.77-1.08-.28-.65-.28-1.52 0-.48.17-.96.16-.49.53-.92.37-.44.95-.83.59-.39 1.45-.67.85-.29 1.99-.47t2.6-.22v-.75q0-1.29-.55-1.91t-1.59-.62q-.75 0-1.24.18-.49.17-.87.39-.37.22-.68.4-.31.17-.68.17-.33 0-.55-.17-.23-.17-.36-.39m15.11-2.21.21 1.01q.39-.39.82-.72t.91-.56 1.03-.36q.55-.14 1.2-.14 1.05 0 1.87.36.81.36 1.35 1 .55.64.83 1.54.28.89.28 1.97v8.16h-3.09v-8.16q0-1.18-.54-1.82-.53-.65-1.63-.65-.8 0-1.5.37-.7.36-1.33.98v9.28h-3.09v-12.83h1.89q.6 0 .79.57m15.7 12.46q-1.68 0-2.57-.94-.89-.95-.89-2.61v-7.16h-1.32q-.25 0-.42-.17-.18-.16-.18-.48v-1.23l2.07-.34.65-3.5q.06-.25.23-.38.18-.14.45-.14h1.6v4.04h3.43v2.2h-3.43v6.95q0 .6.3.93.29.34.8.34.29 0 .49-.07.19-.07.33-.14l.26-.14q.11-.07.22-.07.14 0 .23.07.09.06.19.2l.92 1.5q-.67.56-1.55.85-.87.29-1.81.29m7.46-8.09h5.83q0-.6-.17-1.13t-.51-.93-.86-.63q-.51-.23-1.2-.23-1.34 0-2.11.76t-.98 2.16m7.88 1.86h-7.94q.07.99.35 1.71.27.72.72 1.19t1.07.7 1.37.23 1.3-.18q.54-.17.95-.38l.71-.39q.3-.18.59-.18.39 0 .58.29l.88 1.13q-.51.6-1.15 1-.63.41-1.33.65-.69.25-1.41.35t-1.39.1q-1.34 0-2.49-.45-1.15-.44-2-1.31t-1.34-2.15-.49-2.97q0-1.31.43-2.47.42-1.15 1.22-2.01.79-.86 1.94-1.36 1.14-.5 2.58-.5 1.21 0 2.23.39 1.03.39 1.77 1.13.73.75 1.15 1.83t.42 2.47q0 .7-.15.94t-.57.24m17.27 3.72h3.25v2.31h-10v-2.31h3.66v-10.54q0-.63.04-1.29l-2.6 2.18q-.22.17-.44.22-.22.04-.41 0-.2-.04-.35-.13t-.22-.21l-.98-1.33 5.51-4.69h2.54z"/></svg>